<svg width="1440" height="400" viewBox="0 0 1440 400" fill="none" xmlns="http://www.w3.org/2000/svg">
<rect width="1440" height="400" fill="black"/>
<g opacity="0.15" clip-path="url(#clip0_3_6)">
<path d="M454.596 94.5433C473.173 92.3941 491.781 92.3624 510.357 94.5433C491.781 96.7242 473.173 96.6926 454.596 94.5433Z" fill="#FFF9F3"/>
<path d="M8 127.699C26.5765 125.55 45.1847 125.518 63.7612 127.699C45.1847 129.88 26.5765 129.848 8 127.699Z" fill="#FFF9F3"/>
<path d="M197.183 56.9943C215.76 54.845 234.368 54.8134 252.944 56.9943C234.368 59.1751 215.76 59.1435 197.183 56.9943Z" fill="#FFF9F3"/>
<path d="M150.156 86.0095C168.733 83.8602 187.341 83.8286 205.918 86.0095C187.341 88.1903 168.733 88.1587 150.156 86.0095Z" fill="#FFF9F3"/>
<path d="M379.91 180.103C398.487 177.954 417.095 177.923 435.672 180.103C417.095 182.284 398.487 182.253 379.91 180.103Z" fill="#FFF9F3"/>
<path d="M674.666 166.923C693.243 164.774 711.851 164.742 730.428 166.923C711.851 169.104 693.243 169.073 674.666 166.923Z" fill="#FFF9F3"/>
<path d="M12.9369 86.7996C45.9442 84.6504 79.2997 84.6504 112.307 86.7996C79.2997 88.9489 45.9442 88.9489 12.9369 86.7996Z" fill="#FFF9F3"/>
<path d="M126.295 236.49C148.099 234.341 169.935 234.309 191.74 236.49C169.935 238.671 148.099 238.64 126.295 236.49Z" fill="#FFF9F3"/>
<path d="M71.4197 293.225C119.776 291.107 168.511 291.107 216.867 293.225C168.511 295.342 119.776 295.342 71.4197 293.225Z" fill="#FFF9F3"/>
<path d="M339.466 226.123C386.208 223.974 433.298 223.974 480.072 226.123C433.33 228.272 386.208 228.272 339.466 226.123Z" fill="#FFF9F3"/>
<path d="M456.843 192.082C475.42 189.933 494.028 189.902 512.604 192.082C494.028 194.263 475.42 194.232 456.843 192.082Z" fill="#FFF9F3"/>
<path d="M261.141 263.546C294.971 261.397 329.118 261.397 362.948 263.546C329.118 265.695 294.971 265.695 261.141 263.546Z" fill="#FFF9F3"/>
<path d="M564.188 292.024C597.196 289.874 630.551 289.874 663.558 292.024C630.551 294.173 597.196 294.173 564.188 292.024Z" fill="#FFF9F3"/>
<path d="M909.642 150.488C931.446 148.338 953.283 148.307 975.087 150.488C953.283 152.669 931.446 152.637 909.642 150.488Z" fill="#FFF9F3"/>
<path d="M689.287 223.531C703.813 221.382 718.402 221.351 732.928 223.531C718.402 225.712 703.813 225.681 689.287 223.531Z" fill="#FFF9F3"/>
<path d="M1140.66 40.0845C1179.46 37.9352 1218.58 37.9352 1257.37 40.0845C1218.54 42.2338 1179.46 42.2338 1140.66 40.0845Z" fill="#FFF9F3"/>
<path d="M844.007 33.7631C862.584 31.6138 881.192 31.5822 899.768 33.7631C881.192 35.944 862.584 35.9124 844.007 33.7631Z" fill="#FFF9F3"/>
<path d="M1242.85 98.8419C1287.98 96.6926 1333.45 96.6926 1378.58 98.8419C1333.45 100.991 1287.98 100.991 1242.85 98.8419Z" fill="#FFF9F3"/>
<path d="M688.876 101.528C722.706 99.3792 756.852 99.3792 790.683 101.528C756.852 103.678 722.706 103.678 688.876 101.528Z" fill="#FFF9F3"/>
<path d="M821.633 170.621C844.26 168.472 866.887 168.44 889.515 170.621C866.887 172.802 844.26 172.771 821.633 170.621Z" fill="#FFF9F3"/>
<path d="M945.814 118.501C978.821 116.352 1012.18 116.352 1045.18 118.501C1012.18 120.651 978.821 120.651 945.814 118.501Z" fill="#FFF9F3"/>
<path d="M685.078 17.6436C706.882 15.4943 728.719 15.4627 750.523 17.6436C728.719 19.8245 706.882 19.7928 685.078 17.6436Z" fill="#FFF9F3"/>
<path d="M1335.83 30.3179C1364.81 28.1687 1394.12 28.1687 1423.08 30.3179C1394.09 32.4672 1364.78 32.4672 1335.83 30.3179Z" fill="#FFF9F3"/>
<path d="M1176.83 274.735C1205.82 272.585 1235.13 272.585 1264.08 274.735C1235.1 276.884 1205.79 276.884 1176.83 274.735Z" fill="#FFF9F3"/>
<path d="M701.724 141.385C750.08 139.267 798.816 139.267 847.172 141.385C798.816 143.503 750.08 143.503 701.724 141.385Z" fill="#FFF9F3"/>
<path d="M1184.49 76.4325C1203.07 74.2833 1221.68 74.2517 1240.25 76.4325C1221.68 78.6134 1203.07 78.5818 1184.49 76.4325Z" fill="#FFF9F3"/>
<path d="M1008.41 239.872C1042.24 237.723 1076.39 237.723 1110.22 239.872C1076.39 242.021 1042.24 242.021 1008.41 239.872Z" fill="#FFF9F3"/>
<path d="M1050.31 274.893C1072.94 272.743 1095.57 272.712 1118.19 274.893C1095.57 277.074 1072.94 277.042 1050.31 274.893Z" fill="#FFF9F3"/>
<path d="M243.071 323.884C288.199 321.734 333.675 321.734 378.803 323.884C333.675 326.033 288.199 326.033 243.071 323.884Z" fill="#FFF9F3"/>
<path d="M126.516 382.388C149.144 380.239 171.771 380.207 194.398 382.388C171.771 384.569 149.144 384.537 126.516 382.388Z" fill="#FFF9F3"/>
<path d="M259.843 375.118C292.851 372.969 326.206 372.969 359.213 375.118C326.206 377.268 292.851 377.268 259.843 375.118Z" fill="#FFF9F3"/>
<path d="M383.455 346.072C405.259 343.922 427.095 343.891 448.9 346.072C427.095 348.253 405.259 348.221 383.455 346.072Z" fill="#FFF9F3"/>
<path d="M333.2 291.075C362.188 288.926 391.493 288.926 420.45 291.075C391.461 293.225 362.157 293.225 333.2 291.075Z" fill="#FFF9F3"/>
<path d="M441.621 312.157C456.147 310.008 470.736 309.976 485.262 312.157C470.736 314.338 456.147 314.307 441.621 312.157Z" fill="#FFF9F3"/>
<path d="M419.184 142.997C452.191 140.848 485.547 140.848 518.554 142.997C485.547 145.146 452.191 145.146 419.184 142.997Z" fill="#FFF9F3"/>
<path d="M130.757 28.4848C152.561 26.3355 174.398 26.3039 196.202 28.4848C174.398 30.6656 152.561 30.634 130.757 28.4848Z" fill="#FFF9F3"/>
<path d="M829.829 84.998C843.564 82.8488 857.33 82.8172 871.033 84.998C857.299 87.1789 843.532 87.1473 829.829 84.998Z" fill="#FFF9F3"/>
<path d="M730.238 199.415C771.315 197.266 812.772 197.266 853.849 199.415C812.74 201.565 771.315 201.565 730.238 199.415Z" fill="#FFF9F3"/>
<path d="M456.938 268.255C487.54 266.106 518.459 266.106 549.061 268.255C518.459 270.405 487.54 270.405 456.938 268.255Z" fill="#FFF9F3"/>
<path d="M751.884 241.958C782.486 239.809 813.405 239.809 844.007 241.958C813.405 244.108 782.486 244.108 751.884 241.958Z" fill="#FFF9F3"/>
<path d="M676.755 271.005C695.332 268.856 713.94 268.824 732.516 271.005C713.94 273.186 695.332 273.154 676.755 271.005Z" fill="#FFF9F3"/>
<path d="M1178.48 137.624C1205.85 135.474 1233.54 135.474 1260.89 137.624C1233.51 139.773 1205.82 139.773 1178.48 137.624Z" fill="#FFF9F3"/>
<path d="M887.331 73.8407C896.192 71.6915 905.117 71.6599 914.009 73.8407C905.148 76.0216 896.224 75.99 887.331 73.8407Z" fill="#FFF9F3"/>
<path d="M1276.27 52.7589C1311.71 50.6096 1347.47 50.6096 1382.92 52.7589C1347.47 54.9082 1311.71 54.9082 1276.27 52.7589Z" fill="#FFF9F3"/>
<path d="M1076.23 132.946C1084.3 130.797 1092.4 130.765 1100.47 132.946C1092.43 135.127 1084.3 135.095 1076.23 132.946Z" fill="#FFF9F3"/>
<path d="M1322.34 206.148C1330.41 203.998 1338.52 203.967 1346.59 206.148C1338.55 208.328 1330.41 208.297 1322.34 206.148Z" fill="#FFF9F3"/>
<path d="M1304.37 346.988C1312.44 344.839 1320.54 344.807 1328.61 346.988C1320.57 349.169 1312.44 349.138 1304.37 346.988Z" fill="#FFF9F3"/>
<path d="M1374.62 68.1199C1389.97 65.9706 1405.35 65.939 1420.67 68.1199C1405.32 70.3008 1389.94 70.3008 1374.62 68.1199Z" fill="#FFF9F3"/>
<path d="M1432 381.566C1383.64 383.684 1334.91 383.684 1286.55 381.566C1334.91 379.449 1383.64 379.449 1432 381.566Z" fill="#FFF9F3"/>
<path d="M436.779 375.118C459.406 372.969 482.034 372.938 504.661 375.118C482.034 377.299 459.406 377.268 436.779 375.118Z" fill="#FFF9F3"/>
<path d="M519.187 329.099C566.72 326.981 614.633 326.981 662.198 329.099C614.633 331.216 566.72 331.216 519.187 329.099Z" fill="#FFF9F3"/>
<path d="M567.669 363.013C582.195 360.864 596.784 360.832 611.31 363.013C596.784 365.194 582.195 365.162 567.669 363.013Z" fill="#FFF9F3"/>
<path d="M222.026 351.951C236.551 349.801 251.14 349.77 265.666 351.951C251.14 354.131 236.551 354.1 222.026 351.951Z" fill="#FFF9F3"/>
<path d="M693.718 309.755C716.345 307.606 738.972 307.574 761.599 309.755C738.972 311.936 716.345 311.905 693.718 309.755Z" fill="#FFF9F3"/>
<path d="M814.924 283.111C828.658 280.961 842.425 280.93 856.128 283.111C842.393 285.291 828.627 285.26 814.924 283.111Z" fill="#FFF9F3"/>
<path d="M902.173 254.064C928.725 251.914 955.624 251.914 982.176 254.064C955.624 256.213 928.725 256.213 902.173 254.064Z" fill="#FFF9F3"/>
<path d="M1026.39 380.492C1052.94 378.342 1079.84 378.342 1106.39 380.492C1079.84 382.641 1052.94 382.641 1026.39 380.492Z" fill="#FFF9F3"/>
<path d="M667.071 350.907C696.059 348.758 725.364 348.758 754.321 350.907C725.332 353.057 696.028 353.057 667.071 350.907Z" fill="#FFF9F3"/>
<path d="M800.366 329.099C834.197 326.949 868.343 326.949 902.173 329.099C868.343 331.248 834.197 331.248 800.366 329.099Z" fill="#FFF9F3"/>
<path d="M754.321 379.954C765.618 377.805 776.98 377.773 788.246 379.954C776.948 382.135 765.618 382.104 754.321 379.954Z" fill="#FFF9F3"/>
<path d="M844.007 353.31C886.698 351.16 929.769 351.16 972.492 353.31C929.769 355.459 886.73 355.459 844.007 353.31Z" fill="#FFF9F3"/>
<path d="M931.288 297.65C979.644 295.532 1028.38 295.532 1076.74 297.65C1028.38 299.767 979.644 299.767 931.288 297.65Z" fill="#FFF9F3"/>
<path d="M1030.66 336.368C1047.62 334.219 1064.62 334.187 1081.58 336.368C1064.62 338.549 1047.62 338.518 1030.66 336.368Z" fill="#FFF9F3"/>
<path d="M1324.53 145.81C1339.05 143.661 1353.64 143.629 1368.17 145.81C1353.64 147.991 1339.05 147.959 1324.53 145.81Z" fill="#FFF9F3"/>
<path d="M1350.79 243.855C1365.32 241.705 1379.91 241.674 1394.44 243.855C1379.91 246.036 1365.32 246.004 1350.79 243.855Z" fill="#FFF9F3"/>
<path d="M1054.14 77.7916C1068.67 75.6423 1083.25 75.6107 1097.78 77.7916C1083.25 79.9725 1068.67 79.9409 1054.14 77.7916Z" fill="#FFF9F3"/>
<path d="M1076.93 207.665C1091.45 205.515 1106.04 205.484 1120.57 207.665C1106.04 209.846 1091.45 209.814 1076.93 207.665Z" fill="#FFF9F3"/>
<path d="M1198.29 330.268C1224.84 328.119 1251.74 328.119 1278.29 330.268C1251.74 332.417 1224.84 332.417 1198.29 330.268Z" fill="#FFF9F3"/>
<path d="M1127.62 360.579C1166.3 358.43 1205.32 358.43 1243.99 360.579C1205.32 362.728 1166.3 362.728 1127.62 360.579Z" fill="#FFF9F3"/>
<path d="M1372.31 352.33C1386.84 350.181 1401.43 350.149 1415.96 352.33C1401.43 354.511 1386.84 354.511 1372.31 352.33Z" fill="#FFF9F3"/>
</g>
<defs>
<clipPath id="clip0_3_6">
<rect width="1424" height="368" fill="white" transform="translate(8 16)"/>
</clipPath>
</defs>
</svg>
